<svg version="1.1" viewBox="0.0 0.0 480.0 480.0" fill="none" stroke="none" stroke-linecap="square" stroke-miterlimit="10" xmlns:xlink="http://www.w3.org/1999/xlink" xmlns="http://www.w3.org/2000/svg"><clipPath id="p.0"><path d="m0 0l480.0 0l0 480.0l-480.0 0l0 -480.0z" clip-rule="nonzero"/></clipPath><g clip-path="url(#p.0)"><path fill="#000000" fill-opacity="0.0" d="m0 0l480.0 0l0 480.0l-480.0 0z" fill-rule="evenodd"/><path fill="#ffffff" d="m57.043213 79.2687l0 0c0 -26.707344 21.650581 -48.35792 48.357918 -48.35792l193.4259 0l0 0c12.825317 0 25.125336 5.094837 34.194214 14.163708c9.068878 9.068867 14.163696 21.368896 14.163696 34.194214l0 249.01642c0 26.707367 -21.650574 48.35794 -48.35791 48.35794l-193.4259 0c-26.707336 0 -48.357918 -21.650574 -48.357918 -48.35794z" fill-rule="evenodd"/><path stroke="#b7b7b7" stroke-width="8.0" stroke-linejoin="round" stroke-linecap="butt" d="m57.043213 79.2687l0 0c0 -26.707344 21.650581 -48.35792 48.357918 -48.35792l193.4259 0l0 0c12.825317 0 25.125336 5.094837 34.194214 14.163708c9.068878 9.068867 14.163696 21.368896 14.163696 34.194214l0 249.01642c0 26.707367 -21.650574 48.35794 -48.35791 48.35794l-193.4259 0c-26.707336 0 -48.357918 -21.650574 -48.357918 -48.35794z" fill-rule="evenodd"/><path fill="#ffffff" d="m132.81558 151.7149l0 0c0 -26.707352 21.650589 -48.357933 48.357925 -48.357933l193.42589 0l0 0c12.825317 0 25.125336 5.094841 34.194214 14.163712c9.068878 9.068871 14.163696 21.368889 14.163696 34.19422l0 249.01642c0 26.707367 -21.650574 48.35794 -48.35791 48.35794l-193.42589 0c-26.707336 0 -48.357925 -21.650574 -48.357925 -48.35794z" fill-rule="evenodd"/><path stroke="#b7b7b7" stroke-width="8.0" stroke-linejoin="round" stroke-linecap="butt" d="m132.81558 151.7149l0 0c0 -26.707352 21.650589 -48.357933 48.357925 -48.357933l193.42589 0l0 0c12.825317 0 25.125336 5.094841 34.194214 14.163712c9.068878 9.068871 14.163696 21.368889 14.163696 34.19422l0 249.01642c0 26.707367 -21.650574 48.35794 -48.35791 48.35794l-193.42589 0c-26.707336 0 -48.357925 -21.650574 -48.357925 -48.35794z" fill-rule="evenodd"/></g></svg>